<svg xmlns="http://www.w3.org/2000/svg" width="600" height="600" viewBox="0 0 600 600" version="1.1"><path d="M 246.314 100.950 C 242.151 103.488, 241 105.820, 241 111.712 C 241 117.184, 242.731 120.293, 247.011 122.506 C 253.049 125.628, 261.914 122.986, 264.025 117.434 C 265.498 113.560, 265.195 106.723, 263.439 104.217 C 259.815 99.043, 251.914 97.536, 246.314 100.950 M 241 175 L 241 217 253 217 L 265 217 265 175 L 265 133 253 133 L 241 133 241 175 M 280 174.969 L 280 217 292.500 217 L 305 217 305.004 190.750 C 305.007 166.495, 305.156 164.257, 306.956 161.304 C 309.684 156.830, 313.431 154.667, 318.451 154.667 C 324.330 154.667, 329.021 157.601, 331.750 162.985 C 333.903 167.233, 334 168.488, 334 192.212 L 334 217 346.500 217 L 359 217 359 190.636 C 359 176.137, 358.568 161.995, 358.040 159.211 C 355.340 144.972, 346.709 136.150, 333.354 133.976 C 323.094 132.306, 311.533 136.182, 307.275 142.719 L 305.500 145.444 305 139.472 L 304.500 133.500 292.250 133.219 L 280 132.938 280 174.969 M 269 283.119 C 259.683 285.915, 254.634 293.782, 254.585 305.581 C 254.546 314.955, 257.624 321.254, 264.240 325.345 C 273.634 331.153, 287.369 328.346, 292.514 319.566 C 299.668 307.358, 296.600 291.078, 286.024 285.134 C 281.380 282.524, 273.925 281.642, 269 283.119 M 494.885 283.322 C 485.476 286.834, 481.815 292.306, 481.179 303.811 C 480.890 309.045, 481.250 312.366, 482.446 315.498 C 488.669 331.792, 512.437 332.939, 520.129 317.316 C 522.006 313.503, 522.495 310.913, 522.474 304.879 C 522.451 298.174, 522.086 296.673, 519.433 292.379 C 514.368 284.182, 503.413 280.140, 494.885 283.322 M 79 305.500 L 79 328 83.473 328 L 87.947 328 88.223 313.315 L 88.500 298.629 94.344 313.315 C 100.146 327.895, 100.211 328, 103.344 327.996 C 106.472 327.993, 106.548 327.870, 112 314 C 115.025 306.304, 117.725 300.005, 118 300.003 C 118.275 300.001, 118.354 306.299, 118.176 313.999 L 117.853 328 122.926 328 L 128 328 128 305.452 L 128 282.905 121.899 283.202 L 115.798 283.500 109.744 298.295 C 106.415 306.433, 103.385 312.733, 103.012 312.295 C 102.640 311.858, 99.724 305.087, 96.534 297.250 L 90.734 283 84.867 283 L 79 283 79 305.500 M 136 305.500 L 136 328 151 328 L 166 328 166 324 L 166 320 155.500 320 L 145 320 145 314.500 L 145 309 155.060 309 L 165.121 309 164.810 305.250 L 164.500 301.500 154.750 301.214 L 145 300.928 145 295.964 L 145 291 155.500 291 L 166 291 166 287 L 166 283 151 283 L 136 283 136 305.500 M 174 305.500 L 174 328 188.560 328 L 203.121 328 202.810 324.250 L 202.500 320.500 192.750 320.214 L 183 319.928 183 301.464 L 183 283 178.500 283 L 174 283 174 305.500 M 209 305.500 L 209 328 213.462 328 L 217.925 328 218.212 318.750 L 218.500 309.500 228 309.500 L 237.500 309.500 237.788 318.750 L 238.075 328 242.538 328 L 247 328 247 305.500 L 247 283 242.500 283 L 238 283 238 291.941 C 238 296.859, 237.662 301.086, 237.250 301.336 C 236.838 301.586, 232.338 301.550, 227.250 301.257 L 218 300.723 218 291.861 L 218 283 213.500 283 L 209 283 209 305.500 M 303.038 305.500 L 303.139 328 308.069 328 L 313 328 313 320 L 313 312 316.432 312 C 319.695 312, 320.076 312.393, 324.182 319.999 L 328.500 327.998 333.831 327.999 L 339.162 328 334.458 319.371 L 329.755 310.743 332.752 308.397 C 336.437 305.513, 338.401 298.887, 337.010 294.034 C 334.420 285.004, 330.344 283, 314.567 283 L 302.937 283 303.038 305.500 M 349.985 304.250 C 345.976 315.938, 342.491 326.063, 342.241 326.750 C 341.915 327.645, 343.215 328, 346.813 328 L 351.839 328 353.500 323 L 355.161 318 363.405 318 L 371.649 318 373.119 322.750 L 374.590 327.500 379.924 327.807 C 383.979 328.040, 385.146 327.800, 384.791 326.807 C 384.534 326.088, 381.041 315.938, 377.029 304.250 L 369.734 283 363.504 283 L 357.275 283 349.985 304.250 M 391 305.443 L 391 328 395.473 328 L 399.945 328 400.223 313.822 L 400.500 299.644 410.309 313.822 L 420.118 328 424.059 328 L 428 328 428 305.500 L 428 283 423.527 283 L 419.055 283 418.777 297.193 L 418.500 311.386 408.950 297.443 C 399.422 283.531, 399.390 283.499, 395.200 283.193 L 391 282.885 391 305.443 M 436 305.500 L 436 328 446.750 327.990 C 456.004 327.982, 458.222 327.644, 462.686 325.566 C 470.147 322.092, 473.161 317.175, 473.784 307.461 C 474.369 298.347, 472.455 292.485, 467.462 288.101 C 462.887 284.084, 458.425 283.012, 446.250 283.006 L 436 283 436 305.500 M 269.117 292.631 C 266.026 294.795, 264 299.892, 264 305.500 C 264 314.330, 268.213 320, 274.772 320 C 282.116 320, 287.030 314.053, 286.978 305.230 C 286.951 300.567, 283.824 293.511, 281.151 292.081 C 278.158 290.479, 271.772 290.771, 269.117 292.631 M 313 297.500 L 313 304 318.309 304 C 325.119 304, 327.400 302.369, 327.400 297.500 C 327.400 292.631, 325.119 291, 318.309 291 L 313 291 313 297.500 M 446 305.504 L 446 320.248 451.541 319.788 C 454.915 319.508, 458.143 318.545, 459.791 317.325 C 465.738 312.927, 466.432 300.753, 461.078 294.761 C 458.664 292.059, 457.487 291.591, 452.149 291.204 L 446 290.760 446 305.504 M 495.655 292.133 C 493.110 293.613, 490.048 300.730, 490.022 305.230 C 489.990 310.716, 492.770 316.830, 496.074 318.538 C 499.805 320.468, 504.994 320.393, 507.883 318.369 C 514.667 313.618, 514.667 297.382, 507.883 292.631 C 505.257 290.791, 498.441 290.514, 495.655 292.133 M 360.935 300.750 C 359.710 304.462, 358.500 308.063, 358.247 308.750 C 357.912 309.658, 359.350 310, 363.500 310 C 367.650 310, 369.088 309.658, 368.753 308.750 C 368.500 308.063, 367.290 304.462, 366.065 300.750 C 364.839 297.038, 363.685 294, 363.500 294 C 363.315 294, 362.161 297.038, 360.935 300.750 M 300.989 335.435 C 290.100 339.450, 281.016 345.599, 282.478 347.965 C 282.849 348.565, 287.494 351.085, 292.801 353.565 C 308.609 360.952, 310.600 364.661, 302.559 371.739 C 297.744 375.978, 293.647 377.558, 284.779 378.598 C 280.246 379.129, 278.516 378.913, 276.443 377.554 C 275.004 376.612, 273.590 376.077, 273.300 376.366 C 273.011 376.656, 274.288 377.845, 276.137 379.009 C 283.156 383.427, 300.205 379.640, 305.901 372.398 C 308.781 368.737, 308.686 363.032, 305.690 359.800 C 302.644 356.513, 295.758 352.631, 289.250 350.532 C 286.039 349.497, 284 348.263, 284 347.357 C 284 345.552, 293.940 340.913, 304.399 337.836 C 308.579 336.606, 312 335.239, 312 334.800 C 312 333.574, 304.930 333.982, 300.989 335.435 M 342 335.666 C 334.384 336.866, 324.958 339.259, 324.419 340.130 C 324.079 340.682, 324.507 341.666, 325.371 342.317 C 326.788 343.384, 326.747 343.932, 324.954 347.899 C 323.860 350.318, 321.353 353.817, 319.382 355.676 C 316.671 358.233, 316.063 359.370, 316.880 360.355 C 317.675 361.313, 317.132 363.951, 314.821 370.369 C 311.085 380.739, 311.528 381.816, 318.546 379.433 C 324.375 377.454, 338.839 375.009, 344.750 375.004 C 347.286 375.002, 349 374.536, 349 373.849 C 349 372.192, 331.483 373.475, 321.724 375.847 L 313.949 377.737 314.592 375.619 C 314.946 374.453, 316.699 370.300, 318.489 366.388 C 321.553 359.690, 322.019 359.182, 326.486 357.659 C 329.096 356.770, 334.989 355.517, 339.583 354.874 C 344.177 354.232, 347.699 353.322, 347.409 352.853 C 346.572 351.499, 341.112 351.883, 333 353.868 C 328.875 354.877, 325.349 355.316, 325.164 354.844 C 324.980 354.372, 326.369 351.179, 328.251 347.748 C 333.347 338.461, 335.445 337.547, 351.732 337.521 C 364.221 337.501, 367.118 337.027, 363.418 335.607 C 361.737 334.962, 346.200 335.005, 342 335.666 M 396.675 343.480 C 392.073 352.420, 384.919 362.042, 377.460 369.324 C 359.920 386.449, 356.074 376.792, 368.689 347.296 C 372.855 337.556, 372.647 334.406, 368.344 342.078 C 362.469 352.554, 357.348 368.415, 358.531 372.468 C 358.697 373.035, 359.101 374.725, 359.428 376.221 C 359.756 377.718, 360.930 379.427, 362.037 380.020 C 368.409 383.430, 394.739 357.724, 400.604 342.368 C 403.549 334.654, 400.821 335.427, 396.675 343.480 M 228.500 337.945 C 225.691 339.095, 223.016 342.297, 221.615 346.184 C 220.959 348.008, 218.205 352.875, 215.496 357 C 207.500 369.176, 206.642 377.366, 213.083 380.034 C 217.813 381.994, 223.694 379.151, 230.946 371.399 C 240.951 360.703, 244.694 350.989, 241.632 343.662 C 239.482 338.516, 233.485 335.905, 228.500 337.945 M 226.862 346.764 C 214.827 359.521, 208.810 370.739, 210.963 376.403 C 213.186 382.251, 221.966 378.019, 231.079 366.707 C 240.240 355.336, 243.455 344.833, 238.777 341.557 C 235.119 338.995, 233.539 339.685, 226.862 346.764 M 147.713 392.621 C 147.321 393.013, 147 404.283, 147 417.667 L 147 442 163 442 L 179 442 179 437.500 L 179 433 168.521 433 L 158.041 433 157.771 412.750 L 157.500 392.500 152.963 392.204 C 150.467 392.041, 148.105 392.229, 147.713 392.621 M 186 417 L 186 442 191 442 L 196 442 196 417 L 196 392 191 392 L 186 392 186 417 M 205 417 L 205 442 209.975 442 L 214.949 442 215.225 426.250 L 215.500 410.500 226.368 426.250 L 237.235 442 241.618 442 L 246 442 246 417 L 246 392 241.025 392 L 236.051 392 235.775 407.750 L 235.500 423.500 224.625 407.750 L 213.751 392 209.375 392 L 205 392 205 417 M 255 417 L 255 442 260 442 L 265 442 265 435.212 C 265 429.258, 265.341 428.016, 267.774 425.102 L 270.548 421.779 277.279 431.890 L 284.011 442 290.006 442 C 293.302 442, 296 441.774, 296 441.498 C 296 441.221, 291.953 435.078, 287.007 427.847 L 278.015 414.698 282.507 409.349 C 284.978 406.407, 289.025 401.589, 291.500 398.642 C 293.975 395.695, 296 392.995, 296 392.642 C 296 392.289, 293.351 392, 290.113 392 L 284.226 392 275.363 402.952 C 270.488 408.976, 266.163 413.926, 265.750 413.952 C 265.337 413.979, 265 409.050, 265 403 L 265 392 260 392 L 255 392 255 417 M 302 417 L 302 442 318.500 442 L 335 442 335 437.500 L 335 433 323.500 433 L 312 433 312 427.500 L 312 422 322.500 422 L 333 422 333 417.500 L 333 413 322.500 413 L 312 413 312 407 L 312 401 323.500 401 L 335 401 335 396.500 L 335 392 318.500 392 L 302 392 302 417 M 343.730 392.628 C 343.421 393.128, 343.141 404.476, 343.108 417.847 L 343.048 442.158 355.808 441.829 C 367.162 441.536, 369.114 441.219, 373.525 438.945 C 380.528 435.336, 384.101 429.325, 384.766 420.032 C 385.395 411.238, 383.787 405.280, 379.405 400.160 C 374.629 394.580, 369.630 392.901, 355.896 392.260 C 349.361 391.956, 344.046 392.116, 343.730 392.628 M 393 417 L 393 442 398 442 L 403 442 403 417 L 403 392 398 392 L 393 392 393 417 M 412 417 L 412 442 417.634 442 L 423.268 442 422.548 426.500 C 422.151 417.975, 422.064 411, 422.354 411 C 422.644 411, 427.710 417.975, 433.612 426.500 L 444.342 442 448.671 442 L 453 442 453 417 L 453 392 448.025 392 L 443.051 392 442.775 407.750 L 442.500 423.500 431.687 407.750 L 420.875 392 416.437 392 L 412 392 412 417 M 356.750 401.816 L 354 402.133 354 417.566 L 354 433 359.032 433 C 364.369 433, 369.717 431.254, 371.697 428.866 C 373.890 426.222, 375.324 418.647, 374.576 413.661 C 373.274 404.975, 366.778 400.659, 356.750 401.816 M 306.639 511.694 C 306.288 512.046, 306 514.958, 306 518.167 C 306 522.685, 306.338 524, 307.500 524 C 308.665 524, 309 522.673, 309 518.059 C 309 512.510, 308.141 510.193, 306.639 511.694 M 311 517.500 C 311 521.167, 311.436 524, 312 524 C 312.550 524, 313 523.137, 313 522.082 C 313 519.101, 314.078 517, 315.607 517 C 316.532 517, 317 518.175, 317 520.500 C 317 522.944, 317.452 524, 318.500 524 C 319.537 524, 320 522.958, 320 520.622 C 320 516.749, 317.919 514.527, 315.005 515.288 C 313.409 515.706, 313 515.323, 313 513.406 C 313 512.083, 312.550 511, 312 511 C 311.436 511, 311 513.833, 311 517.500 M 257 519.652 C 257 522.850, 257.397 524, 258.500 524 C 259.548 524, 260 522.944, 260 520.500 C 260 518.056, 260.452 517, 261.500 517 C 262.325 517, 263 516.580, 263 516.067 C 263 515.554, 261.650 515.172, 260 515.219 C 257.140 515.300, 257 515.507, 257 519.652 M 264.667 515.667 C 263.209 517.125, 264.133 518.005, 266.500 517.411 C 268.040 517.024, 269 517.209, 269 517.892 C 269 518.501, 267.875 519, 266.500 519 C 264.510 519, 264 519.502, 264 521.464 C 264 523.732, 264.358 523.920, 268.527 523.836 C 272.190 523.763, 272.971 523.436, 272.620 522.123 C 272.381 521.230, 271.910 519.263, 271.574 517.750 C 271.083 515.546, 270.403 515, 268.148 515 C 266.600 515, 265.033 515.300, 264.667 515.667 M 275.200 516.200 C 272.365 519.035, 274.515 524, 278.578 524 C 280.892 524, 283.422 521.755, 282.333 520.667 C 281.976 520.310, 281.086 520.514, 280.355 521.121 C 278.659 522.528, 276 521.539, 276 519.500 C 276 517.461, 278.659 516.472, 280.355 517.879 C 282.090 519.319, 283.311 518.080, 281.869 516.342 C 280.486 514.676, 276.803 514.597, 275.200 516.200 M 286.427 515.765 C 282.933 518.158, 284.594 524, 288.768 524 C 292.129 524, 294 522.391, 294 519.500 C 294 515.772, 289.592 513.598, 286.427 515.765 M 297.427 515.765 C 295.709 516.942, 295.196 519.321, 296.123 521.814 C 296.820 523.691, 297.599 524.069, 300.241 523.814 C 302.034 523.641, 303.367 523.050, 303.204 522.500 C 303.041 521.950, 301.804 521.645, 300.454 521.822 C 299.104 521.998, 298 521.661, 298 521.072 C 298 520.482, 299.350 520, 301 520 C 304.053 520, 304.474 519.399, 303.393 516.582 C 302.766 514.947, 299.312 514.474, 297.427 515.765 M 323.200 516.200 C 322.540 516.860, 322 518.345, 322 519.500 C 322 520.655, 322.540 522.140, 323.200 522.800 C 323.860 523.460, 325.345 524, 326.500 524 C 327.655 524, 329.140 523.460, 329.800 522.800 C 330.460 522.140, 331 520.655, 331 519.500 C 331 518.345, 330.460 516.860, 329.800 516.200 C 329.140 515.540, 327.655 515, 326.500 515 C 325.345 515, 323.860 515.540, 323.200 516.200 M 334.200 516.200 C 333.540 516.860, 333 518.345, 333 519.500 C 333 520.655, 333.540 522.140, 334.200 522.800 C 334.860 523.460, 336.345 524, 337.500 524 C 338.655 524, 340.140 523.460, 340.800 522.800 C 341.460 522.140, 342 520.655, 342 519.500 C 342 518.345, 341.460 516.860, 340.800 516.200 C 340.140 515.540, 338.655 515, 337.500 515 C 336.345 515, 334.860 515.540, 334.200 516.200 M 287.380 518.452 C 286.676 520.286, 287.700 522, 289.500 522 C 291.339 522, 292.147 520.547, 291.396 518.590 C 290.633 516.601, 288.123 516.515, 287.380 518.452 M 324.364 518.493 C 324.018 519.396, 324.214 520.614, 324.800 521.200 C 326.324 522.724, 329.210 521.331, 328.812 519.265 C 328.369 516.963, 325.165 516.407, 324.364 518.493 M 335.364 518.493 C 335.018 519.396, 335.214 520.614, 335.800 521.200 C 337.324 522.724, 340.210 521.331, 339.812 519.265 C 339.369 516.963, 336.165 516.407, 335.364 518.493 M 267.655 535.829 C 265.580 538.122, 265.426 546.833, 267.413 549.550 C 268.558 551.116, 269.991 551.467, 274.955 551.400 C 278.326 551.354, 281.586 550.814, 282.200 550.200 C 283.826 548.574, 283.762 537.624, 282.116 535.640 C 280.110 533.223, 269.892 533.357, 267.655 535.829 M 299.796 540.750 C 299.527 546.883, 299.294 547.529, 297.250 547.820 C 295.572 548.058, 295 547.640, 295 546.177 C 295 545.097, 295.675 543.955, 296.500 543.638 C 297.895 543.103, 298.692 540, 297.434 540 C 295.977 540, 292.941 542.242, 291.988 544.023 C 289.809 548.094, 295.084 553.079, 299.250 550.885 C 302.344 549.256, 302.967 548.081, 302.985 543.844 C 302.998 540.683, 303.271 540.258, 305 540.710 C 306.100 540.998, 307 540.751, 307 540.162 C 307 538.859, 302.269 534, 301 534 C 300.500 534, 299.958 537.038, 299.796 540.750 M 316.500 535.673 C 313.727 536.447, 313.033 537.842, 313.015 542.679 C 312.993 548.746, 314.727 550, 323.137 550 C 332.849 550, 334 549.208, 334 542.524 C 334 539.551, 333.489 536.802, 332.864 536.416 C 331.391 535.506, 319.098 534.947, 316.500 535.673 M 268.430 537.321 C 268.131 538.101, 268.024 541.160, 268.193 544.119 L 268.500 549.500 274.090 549.795 C 281.100 550.165, 282.216 549.013, 281.805 541.831 L 281.500 536.500 275.237 536.202 C 270.548 535.979, 268.837 536.260, 268.430 537.321 M 271.897 539.883 C 269.845 541.544, 269.712 542.072, 270.765 544.383 C 272.053 547.210, 275.663 547.937, 277.800 545.800 C 279.637 543.963, 279.228 540.192, 277.066 539.035 C 274.557 537.692, 274.613 537.683, 271.897 539.883 M 272.667 540.667 C 271.400 541.933, 272.006 544.788, 273.678 545.430 C 275.845 546.261, 278.261 543.845, 277.430 541.678 C 276.788 540.006, 273.933 539.400, 272.667 540.667 M 322 542.500 C 322 544.760, 322.241 544.941, 324 544 C 325.100 543.411, 326 542.736, 326 542.500 C 326 542.264, 325.100 541.589, 324 541 C 322.241 540.059, 322 540.240, 322 542.500" stroke="none" fill="#f5f2ec" fill-rule="evenodd"/><path d="M 0 300.002 L 0 600.003 300.250 599.752 L 600.500 599.500 600.752 299.750 L 601.003 0 300.502 0 L 0 0 0 300.002 M 0.493 300.500 C 0.493 465.500, 0.609 532.851, 0.750 450.169 C 0.891 367.487, 0.891 232.487, 0.750 150.169 C 0.609 67.851, 0.493 135.500, 0.493 300.500 M 246.314 100.950 C 242.151 103.488, 241 105.820, 241 111.712 C 241 117.184, 242.731 120.293, 247.011 122.506 C 253.049 125.628, 261.914 122.986, 264.025 117.434 C 265.498 113.560, 265.195 106.723, 263.439 104.217 C 259.815 99.043, 251.914 97.536, 246.314 100.950 M 241 175 L 241 217 253 217 L 265 217 265 175 L 265 133 253 133 L 241 133 241 175 M 280 174.969 L 280 217 292.500 217 L 305 217 305.004 190.750 C 305.007 166.495, 305.156 164.257, 306.956 161.304 C 309.684 156.830, 313.431 154.667, 318.451 154.667 C 324.330 154.667, 329.021 157.601, 331.750 162.985 C 333.903 167.233, 334 168.488, 334 192.212 L 334 217 346.500 217 L 359 217 359 190.636 C 359 176.137, 358.568 161.995, 358.040 159.211 C 355.340 144.972, 346.709 136.150, 333.354 133.976 C 323.094 132.306, 311.533 136.182, 307.275 142.719 L 305.500 145.444 305 139.472 L 304.500 133.500 292.250 133.219 L 280 132.938 280 174.969 M 269 283.119 C 259.683 285.915, 254.634 293.782, 254.585 305.581 C 254.546 314.955, 257.624 321.254, 264.240 325.345 C 273.634 331.153, 287.369 328.346, 292.514 319.566 C 299.668 307.358, 296.600 291.078, 286.024 285.134 C 281.380 282.524, 273.925 281.642, 269 283.119 M 494.885 283.322 C 485.476 286.834, 481.815 292.306, 481.179 303.811 C 480.890 309.045, 481.250 312.366, 482.446 315.498 C 488.669 331.792, 512.437 332.939, 520.129 317.316 C 522.006 313.503, 522.495 310.913, 522.474 304.879 C 522.451 298.174, 522.086 296.673, 519.433 292.379 C 514.368 284.182, 503.413 280.140, 494.885 283.322 M 79 305.500 L 79 328 83.473 328 L 87.947 328 88.223 313.315 L 88.500 298.629 94.344 313.315 C 100.146 327.895, 100.211 328, 103.344 327.996 C 106.472 327.993, 106.548 327.870, 112 314 C 115.025 306.304, 117.725 300.005, 118 300.003 C 118.275 300.001, 118.354 306.299, 118.176 313.999 L 117.853 328 122.926 328 L 128 328 128 305.452 L 128 282.905 121.899 283.202 L 115.798 283.500 109.744 298.295 C 106.415 306.433, 103.385 312.733, 103.012 312.295 C 102.640 311.858, 99.724 305.087, 96.534 297.250 L 90.734 283 84.867 283 L 79 283 79 305.500 M 136 305.500 L 136 328 151 328 L 166 328 166 324 L 166 320 155.500 320 L 145 320 145 314.500 L 145 309 155.060 309 L 165.121 309 164.810 305.250 L 164.500 301.500 154.750 301.214 L 145 300.928 145 295.964 L 145 291 155.500 291 L 166 291 166 287 L 166 283 151 283 L 136 283 136 305.500 M 174 305.500 L 174 328 188.560 328 L 203.121 328 202.810 324.250 L 202.500 320.500 192.750 320.214 L 183 319.928 183 301.464 L 183 283 178.500 283 L 174 283 174 305.500 M 209 305.500 L 209 328 213.462 328 L 217.925 328 218.212 318.750 L 218.500 309.500 228 309.500 L 237.500 309.500 237.788 318.750 L 238.075 328 242.538 328 L 247 328 247 305.500 L 247 283 242.500 283 L 238 283 238 291.941 C 238 296.859, 237.662 301.086, 237.250 301.336 C 236.838 301.586, 232.338 301.550, 227.250 301.257 L 218 300.723 218 291.861 L 218 283 213.500 283 L 209 283 209 305.500 M 303.038 305.500 L 303.139 328 308.069 328 L 313 328 313 320 L 313 312 316.432 312 C 319.695 312, 320.076 312.393, 324.182 319.999 L 328.500 327.998 333.831 327.999 L 339.162 328 334.458 319.371 L 329.755 310.743 332.752 308.397 C 336.437 305.513, 338.401 298.887, 337.010 294.034 C 334.420 285.004, 330.344 283, 314.567 283 L 302.937 283 303.038 305.500 M 349.985 304.250 C 345.976 315.938, 342.491 326.063, 342.241 326.750 C 341.915 327.645, 343.215 328, 346.813 328 L 351.839 328 353.500 323 L 355.161 318 363.405 318 L 371.649 318 373.119 322.750 L 374.590 327.500 379.924 327.807 C 383.979 328.040, 385.146 327.800, 384.791 326.807 C 384.534 326.088, 381.041 315.938, 377.029 304.250 L 369.734 283 363.504 283 L 357.275 283 349.985 304.250 M 391 305.443 L 391 328 395.473 328 L 399.945 328 400.223 313.822 L 400.500 299.644 410.309 313.822 L 420.118 328 424.059 328 L 428 328 428 305.500 L 428 283 423.527 283 L 419.055 283 418.777 297.193 L 418.500 311.386 408.950 297.443 C 399.422 283.531, 399.390 283.499, 395.200 283.193 L 391 282.885 391 305.443 M 436 305.500 L 436 328 446.750 327.990 C 456.004 327.982, 458.222 327.644, 462.686 325.566 C 470.147 322.092, 473.161 317.175, 473.784 307.461 C 474.369 298.347, 472.455 292.485, 467.462 288.101 C 462.887 284.084, 458.425 283.012, 446.250 283.006 L 436 283 436 305.500 M 269.117 292.631 C 266.026 294.795, 264 299.892, 264 305.500 C 264 314.330, 268.213 320, 274.772 320 C 282.116 320, 287.030 314.053, 286.978 305.230 C 286.951 300.567, 283.824 293.511, 281.151 292.081 C 278.158 290.479, 271.772 290.771, 269.117 292.631 M 313 297.500 L 313 304 318.309 304 C 325.119 304, 327.400 302.369, 327.400 297.500 C 327.400 292.631, 325.119 291, 318.309 291 L 313 291 313 297.500 M 446 305.504 L 446 320.248 451.541 319.788 C 454.915 319.508, 458.143 318.545, 459.791 317.325 C 465.738 312.927, 466.432 300.753, 461.078 294.761 C 458.664 292.059, 457.487 291.591, 452.149 291.204 L 446 290.760 446 305.504 M 495.655 292.133 C 493.110 293.613, 490.048 300.730, 490.022 305.230 C 489.990 310.716, 492.770 316.830, 496.074 318.538 C 499.805 320.468, 504.994 320.393, 507.883 318.369 C 514.667 313.618, 514.667 297.382, 507.883 292.631 C 505.257 290.791, 498.441 290.514, 495.655 292.133 M 360.935 300.750 C 359.710 304.462, 358.500 308.063, 358.247 308.750 C 357.912 309.658, 359.350 310, 363.500 310 C 367.650 310, 369.088 309.658, 368.753 308.750 C 368.500 308.063, 367.290 304.462, 366.065 300.750 C 364.839 297.038, 363.685 294, 363.500 294 C 363.315 294, 362.161 297.038, 360.935 300.750 M 300.989 335.435 C 290.100 339.450, 281.016 345.599, 282.478 347.965 C 282.849 348.565, 287.494 351.085, 292.801 353.565 C 308.609 360.952, 310.600 364.661, 302.559 371.739 C 297.744 375.978, 293.647 377.558, 284.779 378.598 C 280.246 379.129, 278.516 378.913, 276.443 377.554 C 275.004 376.612, 273.590 376.077, 273.300 376.366 C 273.011 376.656, 274.288 377.845, 276.137 379.009 C 283.156 383.427, 300.205 379.640, 305.901 372.398 C 308.781 368.737, 308.686 363.032, 305.690 359.800 C 302.644 356.513, 295.758 352.631, 289.250 350.532 C 286.039 349.497, 284 348.263, 284 347.357 C 284 345.552, 293.940 340.913, 304.399 337.836 C 308.579 336.606, 312 335.239, 312 334.800 C 312 333.574, 304.930 333.982, 300.989 335.435 M 342 335.666 C 334.384 336.866, 324.958 339.259, 324.419 340.130 C 324.079 340.682, 324.507 341.666, 325.371 342.317 C 326.788 343.384, 326.747 343.932, 324.954 347.899 C 323.860 350.318, 321.353 353.817, 319.382 355.676 C 316.671 358.233, 316.063 359.370, 316.880 360.355 C 317.675 361.313, 317.132 363.951, 314.821 370.369 C 311.085 380.739, 311.528 381.816, 318.546 379.433 C 324.375 377.454, 338.839 375.009, 344.750 375.004 C 347.286 375.002, 349 374.536, 349 373.849 C 349 372.192, 331.483 373.475, 321.724 375.847 L 313.949 377.737 314.592 375.619 C 314.946 374.453, 316.699 370.300, 318.489 366.388 C 321.553 359.690, 322.019 359.182, 326.486 357.659 C 329.096 356.770, 334.989 355.517, 339.583 354.874 C 344.177 354.232, 347.699 353.322, 347.409 352.853 C 346.572 351.499, 341.112 351.883, 333 353.868 C 328.875 354.877, 325.349 355.316, 325.164 354.844 C 324.980 354.372, 326.369 351.179, 328.251 347.748 C 333.347 338.461, 335.445 337.547, 351.732 337.521 C 364.221 337.501, 367.118 337.027, 363.418 335.607 C 361.737 334.962, 346.200 335.005, 342 335.666 M 396.675 343.480 C 392.073 352.420, 384.919 362.042, 377.460 369.324 C 359.920 386.449, 356.074 376.792, 368.689 347.296 C 372.855 337.556, 372.647 334.406, 368.344 342.078 C 362.469 352.554, 357.348 368.415, 358.531 372.468 C 358.697 373.035, 359.101 374.725, 359.428 376.221 C 359.756 377.718, 360.930 379.427, 362.037 380.020 C 368.409 383.430, 394.739 357.724, 400.604 342.368 C 403.549 334.654, 400.821 335.427, 396.675 343.480 M 228.500 337.945 C 225.691 339.095, 223.016 342.297, 221.615 346.184 C 220.959 348.008, 218.205 352.875, 215.496 357 C 207.500 369.176, 206.642 377.366, 213.083 380.034 C 217.813 381.994, 223.694 379.151, 230.946 371.399 C 240.951 360.703, 244.694 350.989, 241.632 343.662 C 239.482 338.516, 233.485 335.905, 228.500 337.945 M 226.862 346.764 C 214.827 359.521, 208.810 370.739, 210.963 376.403 C 213.186 382.251, 221.966 378.019, 231.079 366.707 C 240.240 355.336, 243.455 344.833, 238.777 341.557 C 235.119 338.995, 233.539 339.685, 226.862 346.764 M 147.713 392.621 C 147.321 393.013, 147 404.283, 147 417.667 L 147 442 163 442 L 179 442 179 437.500 L 179 433 168.521 433 L 158.041 433 157.771 412.750 L 157.500 392.500 152.963 392.204 C 150.467 392.041, 148.105 392.229, 147.713 392.621 M 186 417 L 186 442 191 442 L 196 442 196 417 L 196 392 191 392 L 186 392 186 417 M 205 417 L 205 442 209.975 442 L 214.949 442 215.225 426.250 L 215.500 410.500 226.368 426.250 L 237.235 442 241.618 442 L 246 442 246 417 L 246 392 241.025 392 L 236.051 392 235.775 407.750 L 235.500 423.500 224.625 407.750 L 213.751 392 209.375 392 L 205 392 205 417 M 255 417 L 255 442 260 442 L 265 442 265 435.212 C 265 429.258, 265.341 428.016, 267.774 425.102 L 270.548 421.779 277.279 431.890 L 284.011 442 290.006 442 C 293.302 442, 296 441.774, 296 441.498 C 296 441.221, 291.953 435.078, 287.007 427.847 L 278.015 414.698 282.507 409.349 C 284.978 406.407, 289.025 401.589, 291.500 398.642 C 293.975 395.695, 296 392.995, 296 392.642 C 296 392.289, 293.351 392, 290.113 392 L 284.226 392 275.363 402.952 C 270.488 408.976, 266.163 413.926, 265.750 413.952 C 265.337 413.979, 265 409.050, 265 403 L 265 392 260 392 L 255 392 255 417 M 302 417 L 302 442 318.500 442 L 335 442 335 437.500 L 335 433 323.500 433 L 312 433 312 427.500 L 312 422 322.500 422 L 333 422 333 417.500 L 333 413 322.500 413 L 312 413 312 407 L 312 401 323.500 401 L 335 401 335 396.500 L 335 392 318.500 392 L 302 392 302 417 M 343.730 392.628 C 343.421 393.128, 343.141 404.476, 343.108 417.847 L 343.048 442.158 355.808 441.829 C 367.162 441.536, 369.114 441.219, 373.525 438.945 C 380.528 435.336, 384.101 429.325, 384.766 420.032 C 385.395 411.238, 383.787 405.280, 379.405 400.160 C 374.629 394.580, 369.630 392.901, 355.896 392.260 C 349.361 391.956, 344.046 392.116, 343.730 392.628 M 393 417 L 393 442 398 442 L 403 442 403 417 L 403 392 398 392 L 393 392 393 417 M 412 417 L 412 442 417.634 442 L 423.268 442 422.548 426.500 C 422.151 417.975, 422.064 411, 422.354 411 C 422.644 411, 427.710 417.975, 433.612 426.500 L 444.342 442 448.671 442 L 453 442 453 417 L 453 392 448.025 392 L 443.051 392 442.775 407.750 L 442.500 423.500 431.687 407.750 L 420.875 392 416.437 392 L 412 392 412 417 M 356.750 401.816 L 354 402.133 354 417.566 L 354 433 359.032 433 C 364.369 433, 369.717 431.254, 371.697 428.866 C 373.890 426.222, 375.324 418.647, 374.576 413.661 C 373.274 404.975, 366.778 400.659, 356.750 401.816 M 306.639 511.694 C 306.288 512.046, 306 514.958, 306 518.167 C 306 522.685, 306.338 524, 307.500 524 C 308.665 524, 309 522.673, 309 518.059 C 309 512.510, 308.141 510.193, 306.639 511.694 M 311 517.500 C 311 521.167, 311.436 524, 312 524 C 312.550 524, 313 523.137, 313 522.082 C 313 519.101, 314.078 517, 315.607 517 C 316.532 517, 317 518.175, 317 520.500 C 317 522.944, 317.452 524, 318.500 524 C 319.537 524, 320 522.958, 320 520.622 C 320 516.749, 317.919 514.527, 315.005 515.288 C 313.409 515.706, 313 515.323, 313 513.406 C 313 512.083, 312.550 511, 312 511 C 311.436 511, 311 513.833, 311 517.500 M 257 519.652 C 257 522.850, 257.397 524, 258.500 524 C 259.548 524, 260 522.944, 260 520.500 C 260 518.056, 260.452 517, 261.500 517 C 262.325 517, 263 516.580, 263 516.067 C 263 515.554, 261.650 515.172, 260 515.219 C 257.140 515.300, 257 515.507, 257 519.652 M 264.667 515.667 C 263.209 517.125, 264.133 518.005, 266.500 517.411 C 268.040 517.024, 269 517.209, 269 517.892 C 269 518.501, 267.875 519, 266.500 519 C 264.510 519, 264 519.502, 264 521.464 C 264 523.732, 264.358 523.920, 268.527 523.836 C 272.190 523.763, 272.971 523.436, 272.620 522.123 C 272.381 521.230, 271.910 519.263, 271.574 517.750 C 271.083 515.546, 270.403 515, 268.148 515 C 266.600 515, 265.033 515.300, 264.667 515.667 M 275.200 516.200 C 272.365 519.035, 274.515 524, 278.578 524 C 280.892 524, 283.422 521.755, 282.333 520.667 C 281.976 520.310, 281.086 520.514, 280.355 521.121 C 278.659 522.528, 276 521.539, 276 519.500 C 276 517.461, 278.659 516.472, 280.355 517.879 C 282.090 519.319, 283.311 518.080, 281.869 516.342 C 280.486 514.676, 276.803 514.597, 275.200 516.200 M 286.427 515.765 C 282.933 518.158, 284.594 524, 288.768 524 C 292.129 524, 294 522.391, 294 519.500 C 294 515.772, 289.592 513.598, 286.427 515.765 M 297.427 515.765 C 295.709 516.942, 295.196 519.321, 296.123 521.814 C 296.820 523.691, 297.599 524.069, 300.241 523.814 C 302.034 523.641, 303.367 523.050, 303.204 522.500 C 303.041 521.950, 301.804 521.645, 300.454 521.822 C 299.104 521.998, 298 521.661, 298 521.072 C 298 520.482, 299.350 520, 301 520 C 304.053 520, 304.474 519.399, 303.393 516.582 C 302.766 514.947, 299.312 514.474, 297.427 515.765 M 323.200 516.200 C 322.540 516.860, 322 518.345, 322 519.500 C 322 520.655, 322.540 522.140, 323.200 522.800 C 323.860 523.460, 325.345 524, 326.500 524 C 327.655 524, 329.140 523.460, 329.800 522.800 C 330.460 522.140, 331 520.655, 331 519.500 C 331 518.345, 330.460 516.860, 329.800 516.200 C 329.140 515.540, 327.655 515, 326.500 515 C 325.345 515, 323.860 515.540, 323.200 516.200 M 334.200 516.200 C 333.540 516.860, 333 518.345, 333 519.500 C 333 520.655, 333.540 522.140, 334.200 522.800 C 334.860 523.460, 336.345 524, 337.500 524 C 338.655 524, 340.140 523.460, 340.800 522.800 C 341.460 522.140, 342 520.655, 342 519.500 C 342 518.345, 341.460 516.860, 340.800 516.200 C 340.140 515.540, 338.655 515, 337.500 515 C 336.345 515, 334.860 515.540, 334.200 516.200 M 287.380 518.452 C 286.676 520.286, 287.700 522, 289.500 522 C 291.339 522, 292.147 520.547, 291.396 518.590 C 290.633 516.601, 288.123 516.515, 287.380 518.452 M 324.364 518.493 C 324.018 519.396, 324.214 520.614, 324.800 521.200 C 326.324 522.724, 329.210 521.331, 328.812 519.265 C 328.369 516.963, 325.165 516.407, 324.364 518.493 M 335.364 518.493 C 335.018 519.396, 335.214 520.614, 335.800 521.200 C 337.324 522.724, 340.210 521.331, 339.812 519.265 C 339.369 516.963, 336.165 516.407, 335.364 518.493 M 267.655 535.829 C 265.580 538.122, 265.426 546.833, 267.413 549.550 C 268.558 551.116, 269.991 551.467, 274.955 551.400 C 278.326 551.354, 281.586 550.814, 282.200 550.200 C 283.826 548.574, 283.762 537.624, 282.116 535.640 C 280.110 533.223, 269.892 533.357, 267.655 535.829 M 299.796 540.750 C 299.527 546.883, 299.294 547.529, 297.250 547.820 C 295.572 548.058, 295 547.640, 295 546.177 C 295 545.097, 295.675 543.955, 296.500 543.638 C 297.895 543.103, 298.692 540, 297.434 540 C 295.977 540, 292.941 542.242, 291.988 544.023 C 289.809 548.094, 295.084 553.079, 299.250 550.885 C 302.344 549.256, 302.967 548.081, 302.985 543.844 C 302.998 540.683, 303.271 540.258, 305 540.710 C 306.100 540.998, 307 540.751, 307 540.162 C 307 538.859, 302.269 534, 301 534 C 300.500 534, 299.958 537.038, 299.796 540.750 M 316.500 535.673 C 313.727 536.447, 313.033 537.842, 313.015 542.679 C 312.993 548.746, 314.727 550, 323.137 550 C 332.849 550, 334 549.208, 334 542.524 C 334 539.551, 333.489 536.802, 332.864 536.416 C 331.391 535.506, 319.098 534.947, 316.500 535.673 M 268.430 537.321 C 268.131 538.101, 268.024 541.160, 268.193 544.119 L 268.500 549.500 274.090 549.795 C 281.100 550.165, 282.216 549.013, 281.805 541.831 L 281.500 536.500 275.237 536.202 C 270.548 535.979, 268.837 536.260, 268.430 537.321 M 271.897 539.883 C 269.845 541.544, 269.712 542.072, 270.765 544.383 C 272.053 547.210, 275.663 547.937, 277.800 545.800 C 279.637 543.963, 279.228 540.192, 277.066 539.035 C 274.557 537.692, 274.613 537.683, 271.897 539.883 M 272.667 540.667 C 271.400 541.933, 272.006 544.788, 273.678 545.430 C 275.845 546.261, 278.261 543.845, 277.430 541.678 C 276.788 540.006, 273.933 539.400, 272.667 540.667 M 322 542.500 C 322 544.760, 322.241 544.941, 324 544 C 325.100 543.411, 326 542.736, 326 542.500 C 326 542.264, 325.100 541.589, 324 541 C 322.241 540.059, 322 540.240, 322 542.500" stroke="none" fill="#043888" fill-rule="evenodd"/></svg>